# Blender 3.1.0
# www.blender.org
mtllib branch.mtl
o Object_Dead_tree_2022-04-28_15-25-27.obj.001
v 29.832521 11.414978 -3.180275
v 32.847046 17.458229 -5.914222
v 31.066277 10.281278 3.373621
v 26.712103 10.518106 -0.234392
v -8.723467 16.981598 -32.384163
v -8.223080 16.745295 -35.032848
v -4.232317 17.296358 -37.783455
v -5.458746 22.906698 -36.442451
v 28.130238 22.281204 -4.471298
v 32.721504 20.569452 4.841688
v 29.080276 14.075472 9.570677
v 25.343813 12.592430 4.850649
v 23.127266 18.539934 1.828072
v -8.955677 21.440947 -32.825874
v -27.100863 26.270090 -51.197235
v -26.985979 23.294308 -52.292198
v -27.238615 21.920246 -53.599487
v -24.862226 23.849957 -56.087006
v -25.594820 28.545609 -53.880028
v -6.326651 24.744720 -34.006096
v 28.002254 23.900215 3.652980
v -9.959894 36.428181 21.624380
v 30.712635 17.038021 7.541533
v -9.105089 33.233383 26.217337
v -11.980198 29.233936 22.575613
v -13.337831 31.172821 17.999704
v -25.845015 28.663759 -52.555687
v -51.599327 33.773483 -59.950241
v -53.725525 31.725620 -58.787071
v -53.610641 28.749838 -59.882034
v -53.486771 27.944658 -61.860023
v -50.490219 29.646711 -62.827919
v -51.475456 32.968304 -61.928230
v -64.168015 33.569283 -69.908310
v 75.365250 21.012589 3.542807
v 64.705383 29.705944 1.288370
v 75.217957 21.183800 3.842495
v 64.964119 29.150131 -0.889800
v 74.624115 20.898581 -1.266313
v 74.809731 20.824192 -0.728523
v 68.295547 27.572464 7.191923
v 74.064133 22.728718 7.509577
v 74.262039 22.580667 7.637842
v 67.810249 27.917662 6.761772
v 68.536667 25.502117 -4.890963
v 67.824036 26.046185 -5.281927
vn 0.1346 -0.4697 -0.8225
vn 0.1236 -0.4415 -0.8397
vn -0.1647 0.7157 -0.6130
vn 0.2252 -0.9297 0.0117
vn 0.2020 -0.9143 -0.1962
vn 0.0985 -0.9344 -0.1802
vn 0.0443 -0.9263 -0.2351
vn -0.1742 -0.9393 0.0509
vn 0.4681 -0.5264 -0.6473
vn 0.0747 -0.9502 -0.0820
vn 0.5925 0.2947 -0.6909
vn 0.4972 0.6388 -0.5099
vn 0.6412 0.6840 -0.1904
vn -0.1994 0.8501 0.3909
vn 0.1787 -0.8665 0.3639
vn 0.1852 -0.7729 0.5325
vn -0.2208 -0.8237 0.4336
vn -0.2795 -0.8710 0.2801
vn -0.8779 -0.3704 -0.0851
vn -0.6441 -0.4319 0.5602
vn -0.6386 0.0372 0.7114
vn -0.6761 0.0318 0.6761
vn -0.7190 -0.2422 0.5828
vn -0.3298 -0.8979 0.0178
vn -0.6581 -0.4112 0.5594
vn -0.0294 -0.9285 -0.2287
vn 0.1633 -0.8139 -0.4755
vn 0.6547 0.2943 -0.6325
vn 0.6326 0.3837 -0.6064
vn 0.5145 0.7213 -0.3609
vn 0.4142 0.7529 -0.4204
vn -0.2257 0.8670 0.3356
vn -0.6751 0.6626 -0.1427
vn 0.5691 0.7558 -0.1417
vn 0.4352 0.7565 0.3919
vn 0.4350 0.3474 0.7780
vn -0.0065 0.0549 0.9551
vn -0.0738 0.5663 0.7675
vn 0.4780 0.2727 0.7826
vn -0.0109 -0.6397 0.7112
vn -0.1822 -0.8451 0.4097
vn -0.5214 -0.5093 -0.6197
vn -0.3957 -0.8380 -0.2377
vn -0.2015 0.4604 -0.8140
vn -0.1482 0.5993 -0.7308
vn -0.8362 0.2835 0.3682
vn -0.8424 0.2834 0.3539
vn 0.4835 0.7172 0.4089
vn -0.5192 0.6029 0.5312
vn -0.4588 0.5814 0.6056
vn -0.4573 0.5832 0.6050
vn -0.1257 0.5171 0.7950
vn -0.1077 0.5516 0.7742
vn -0.3075 -0.3233 0.8463
vn -0.3157 -0.5913 0.6825
vn -0.2976 -0.8485 0.3268
vn 0.0085 -0.7598 -0.5813
vn 0.0738 -0.5663 -0.7675
vn 0.3066 0.4242 -0.8008
vn 0.3172 0.3224 -0.8430
vn 0.1762 0.9390 -0.0505
vn 0.2249 0.9290 -0.0404
vn 0.2654 0.8570 -0.3322
vn 0.2511 0.8604 -0.3345
vn -0.4074 0.7068 0.4997
vn -0.6934 -0.2510 0.6094
vn -0.5737 -0.7209 0.2575
vn 0.1585 -0.6615 -0.6727
vn 0.4863 0.3467 -0.7474
vn -0.1704 0.6310 0.6986
vn -0.2794 0.8781 -0.2572
vn 0.6146 0.7246 -0.1119
s 0
usemtl m47
f 45//1 39//1 1//1
usemtl m48
f 45//2 1//2 2//2 46//2
usemtl m49
f 46//3 2//3 38//3
usemtl m58
f 40//4 35//4 3//4
usemtl m59
f 40//5 3//5 1//5 39//5
usemtl m60
f 1//6 3//6 4//6
usemtl m61
f 1//7 4//7 5//7
usemtl m62
f 1//8 5//8 6//8
usemtl m63
f 1//9 6//9 2//9
usemtl m64
f 2//10 6//10 7//10
usemtl m65
f 2//11 7//11 8//11
usemtl m66
f 2//12 8//12 9//12
usemtl m67
f 2//13 9//13 10//13
usemtl m69
f 36//14 10//14 44//14
usemtl m98
f 37//15 43//15 11//15
usemtl m99
f 37//16 11//16 3//16 35//16
usemtl m100
f 3//17 11//17 12//17
usemtl m101
f 3//18 12//18 4//18
usemtl m102
f 4//19 12//19 13//19
usemtl m103
f 4//20 13//20 14//20
usemtl m104
f 4//21 14//21 5//21
usemtl m105
f 5//22 14//22 15//22
usemtl m106
f 5//23 15//23 16//23
usemtl m107
f 5//24 16//24 6//24
usemtl m108
f 6//25 16//25 17//25
usemtl m109
f 6//26 17//26 7//26
usemtl m110
f 7//27 17//27 18//27
usemtl m111
f 7//28 18//28 8//28
usemtl m112
f 8//29 18//29 19//29
usemtl m113
f 8//30 19//30 20//30
usemtl m114
f 8//31 20//31 9//31
usemtl m115
f 9//32 20//32 13//32
usemtl m116
f 9//33 13//33 21//33
usemtl m117
f 9//34 21//34 10//34
usemtl m118
f 10//35 21//35 22//35
usemtl m119
f 10//36 22//36 23//36
usemtl m121
f 41//37 23//37 42//37
usemtl m179
f 42//38 23//38 11//38 43//38
usemtl m180
f 11//39 23//39 24//39
usemtl m181
f 11//40 24//40 25//40
usemtl m182
f 11//41 25//41 12//41
usemtl m183
f 12//42 25//42 13//42
usemtl m184
f 13//43 25//43 26//43
usemtl m185
f 13//44 26//44 21//44
usemtl m186
f 21//45 26//45 22//45
usemtl m187
f 22//46 26//46 25//46
usemtl m188
f 22//47 25//47 24//47
usemtl m189
f 22//48 24//48 23//48
usemtl m205
f 13//49 20//49 14//49
usemtl m206
f 14//50 20//50 27//50
usemtl m207
f 14//51 27//51 15//51
usemtl m208
f 15//52 27//52 28//52
usemtl m209
f 15//53 28//53 29//53
usemtl m210
f 15//54 29//54 16//54
usemtl m211
f 16//54 29//54 30//54
usemtl m212
f 16//55 30//55 17//55
usemtl m213
f 17//56 30//56 31//56
usemtl m214
f 17//57 31//57 18//57
usemtl m215
f 18//58 31//58 32//58
usemtl m216
f 18//59 32//59 19//59
usemtl m217
f 19//60 32//60 33//60
usemtl m218
f 19//61 33//61 27//61
usemtl m219
f 19//62 27//62 20//62
usemtl m220
f 27//63 33//63 28//63
usemtl m221
f 28//64 33//64 34//64
usemtl m222
f 28//65 34//65 29//65
usemtl m223
f 29//66 34//66 30//66
usemtl m224
f 30//67 34//67 31//67
usemtl m225
f 31//68 34//68 32//68
usemtl m226
f 32//69 34//69 33//69
usemtl m120
f 10//70 23//70 41//70 44//70
usemtl m68
f 2//71 10//71 36//71 38//71
usemtl m48
f 45//72 46//72 38//72 36//72 44//72 41//72 42//72 43//72 37//72 35//72 40//72 39//72
